<svg xmlns="http://www.w3.org/2000/svg" width="582" height="75" viewBox="0 0 582 75" fill="none"><path d="M523 73.0002C523 69.1335 523 65.3835 523 61.7502C523 58.1169 523 54.0835 523 49.6502V25.5002C523 20.9669 523 16.8502 523 13.1502C523 9.4502 523 5.63353 523 1.7002C525.067 1.7002 527.5 1.7002 530.3 1.7002C533.1 1.7002 536.1 1.7002 539.3 1.7002C542.533 1.7002 545.85 1.7002 549.25 1.7002C554.917 1.7002 559.7 2.35019 563.6 3.6502C567.5 4.91686 570.433 7.01686 572.4 9.9502C574.4 12.8835 575.4 16.8502 575.4 21.8502C575.4 25.8835 574.6 29.5502 573 32.8502C571.433 36.1502 568.867 38.7835 565.3 40.7502C561.767 42.6835 557.067 43.6669 551.2 43.7002L556.35 38.1002L566.6 52.3502C568.2 54.5502 569.883 56.9002 571.65 59.4002C573.45 61.9002 575.2 64.3335 576.9 66.7002C578.633 69.0669 580.15 71.1669 581.45 73.0002H565.45C563.483 70.1335 561.583 67.3835 559.75 64.7502C557.95 62.0835 556.183 59.5002 554.45 57.0002L542.35 39.3502L550.75 46.3502H534.2V35.5002H546.7C549.833 35.5002 552.45 35.1335 554.55 34.4002C556.683 33.6335 558.283 32.3835 559.35 30.6502C560.417 28.8835 560.95 26.5002 560.95 23.5002C560.95 21.1669 560.583 19.3002 559.85 17.9002C559.15 16.5002 558.2 15.4335 557 14.7002C555.8 13.9669 554.483 13.4835 553.05 13.2502C551.65 13.0169 550.233 12.9002 548.8 12.9002H526.85L536.7 3.8502C536.7 7.98353 536.7 11.9002 536.7 15.6002C536.7 19.2669 536.7 23.3002 536.7 27.7002V49.6502C536.7 54.0835 536.7 58.1169 536.7 61.7502C536.7 65.3835 536.7 69.1335 536.7 73.0002H523Z" fill="black"></path><path d="M322.383 73.0002C322.383 69.1335 322.383 65.3835 322.383 61.7502C322.383 58.1169 322.383 54.0835 322.383 49.6502V27.7002C322.383 23.1335 322.383 19.0002 322.383 15.3002C322.383 11.6002 322.383 7.78353 322.383 3.8502L327.733 13.9502H318.583C314.749 13.9502 311.333 13.9502 308.333 13.9502C305.366 13.9502 302.549 13.9502 299.883 13.9502V1.7002H358.783V13.9502C356.116 13.9502 353.299 13.9502 350.333 13.9502C347.366 13.9502 343.949 13.9502 340.083 13.9502H330.933L336.333 3.8502C336.333 7.78353 336.333 11.6002 336.333 15.3002C336.333 19.0002 336.333 23.1335 336.333 27.7002V49.6502C336.333 54.0835 336.333 58.1169 336.333 61.7502C336.333 65.3835 336.333 69.1335 336.333 73.0002H322.383Z" fill="black"></path><path d="M270.223 74.2498C264.49 74.2498 259.323 73.3665 254.723 71.5998C250.123 69.7998 246.207 67.2665 242.973 63.9998C239.74 60.6998 237.257 56.7998 235.523 52.2998C233.823 47.7665 232.973 42.7831 232.973 37.3498C232.973 30.1831 234.423 23.8165 237.323 18.2498C240.257 12.6498 244.407 8.26648 249.773 5.09981C255.14 1.89981 261.523 0.299805 268.923 0.299805C271.223 0.299805 273.49 0.449807 275.723 0.749809C277.99 1.04981 280.14 1.46647 282.173 1.99981C284.24 2.53314 286.14 3.13314 287.873 3.79981C289.64 4.43314 291.19 5.11648 292.523 5.84981L291.423 18.9498C288.857 17.3498 286.357 16.0665 283.923 15.0998C281.49 14.0998 279.14 13.3831 276.873 12.9498C274.64 12.5165 272.473 12.2998 270.373 12.2998C265.973 12.2998 262.04 13.2831 258.573 15.2498C255.14 17.2165 252.44 20.0665 250.473 23.7998C248.507 27.5331 247.523 32.0498 247.523 37.3498C247.523 40.7831 248.023 44.0331 249.023 47.0998C250.057 50.1331 251.59 52.8165 253.623 55.1498C255.657 57.4831 258.19 59.3165 261.223 60.6498C264.29 61.9498 267.857 62.5998 271.923 62.5998C273.523 62.5998 275.14 62.4998 276.773 62.2998C278.407 62.0665 280.04 61.7165 281.673 61.2498C283.307 60.7831 284.923 60.1498 286.523 59.3498C288.123 58.5498 289.707 57.5831 291.273 56.4498L292.123 69.3998C290.723 70.2331 289.157 70.9665 287.423 71.5998C285.69 72.1998 283.873 72.6998 281.973 73.0998C280.107 73.4998 278.173 73.7831 276.173 73.9498C274.173 74.1498 272.19 74.2498 270.223 74.2498Z" fill="black"></path><path fill-rule="evenodd" clip-rule="evenodd" d="M106 66.9326C122.531 66.9326 135.933 53.5313 135.933 37C135.933 20.4687 122.531 7.06742 106 7.06742C89.4687 7.06742 76.0674 20.4687 76.0674 37C76.0674 53.5313 89.4687 66.9326 106 66.9326ZM106 74C126.435 74 143 57.4345 143 37C143 16.5655 126.435 0 106 0C85.5655 0 69 16.5655 69 37C69 57.4345 85.5655 74 106 74Z" fill="black"></path><path fill-rule="evenodd" clip-rule="evenodd" d="M396 66.9326C412.531 66.9326 425.933 53.5313 425.933 37C425.933 20.4687 412.531 7.06742 396 7.06742C379.469 7.06742 366.067 20.4687 366.067 37C366.067 53.5313 379.469 66.9326 396 66.9326ZM396 74C416.435 74 433 57.4345 433 37C433 16.5655 416.435 0 396 0C375.565 0 359 16.5655 359 37C359 57.4345 375.565 74 396 74Z" fill="black"></path><path fill-rule="evenodd" clip-rule="evenodd" d="M478 66.9326C494.531 66.9326 507.933 53.5313 507.933 37C507.933 20.4687 494.531 7.06742 478 7.06742C461.469 7.06742 448.067 20.4687 448.067 37C448.067 53.5313 461.469 66.9326 478 66.9326ZM478 74C498.435 74 515 57.4345 515 37C515 16.5655 498.435 0 478 0C457.565 0 441 16.5655 441 37C441 57.4345 457.565 74 478 74Z" fill="black"></path><path fill-rule="evenodd" clip-rule="evenodd" d="M188 66.9326C204.531 66.9326 217.933 53.5313 217.933 37C217.933 20.4687 204.531 7.06742 188 7.06742C171.469 7.06742 158.067 20.4687 158.067 37C158.067 53.5313 171.469 66.9326 188 66.9326ZM188 74C208.435 74 225 57.4345 225 37C225 16.5655 208.435 0 188 0C167.565 0 151 16.5655 151 37C151 57.4345 167.565 74 188 74Z" fill="black"></path><path fill-rule="evenodd" clip-rule="evenodd" d="M106 52.3708C114.489 52.3708 121.371 45.489 121.371 37C121.371 28.5109 114.489 21.6292 106 21.6292C97.5109 21.6292 90.6292 28.5109 90.6292 37C90.6292 45.489 97.5109 52.3708 106 52.3708ZM106 56C116.493 56 125 47.4934 125 37C125 26.5066 116.493 18 106 18C95.5066 18 87 26.5066 87 37C87 47.4934 95.5066 56 106 56Z" fill="black"></path><path fill-rule="evenodd" clip-rule="evenodd" d="M396 52.3708C404.489 52.3708 411.371 45.489 411.371 37C411.371 28.5109 404.489 21.6292 396 21.6292C387.511 21.6292 380.629 28.5109 380.629 37C380.629 45.489 387.511 52.3708 396 52.3708ZM396 56C406.493 56 415 47.4934 415 37C415 26.5066 406.493 18 396 18C385.507 18 377 26.5066 377 37C377 47.4934 385.507 56 396 56Z" fill="black"></path><path fill-rule="evenodd" clip-rule="evenodd" d="M478 52.3708C486.489 52.3708 493.371 45.489 493.371 37C493.371 28.5109 486.489 21.6292 478 21.6292C469.511 21.6292 462.629 28.5109 462.629 37C462.629 45.489 469.511 52.3708 478 52.3708ZM478 56C488.493 56 497 47.4934 497 37C497 26.5066 488.493 18 478 18C467.507 18 459 26.5066 459 37C459 47.4934 467.507 56 478 56Z" fill="black"></path><path fill-rule="evenodd" clip-rule="evenodd" d="M188 52.3708C196.489 52.3708 203.371 45.489 203.371 37C203.371 28.5109 196.489 21.6292 188 21.6292C179.511 21.6292 172.629 28.5109 172.629 37C172.629 45.489 179.511 52.3708 188 52.3708ZM188 56C198.493 56 207 47.4934 207 37C207 26.5066 198.493 18 188 18C177.507 18 169 26.5066 169 37C169 47.4934 177.507 56 188 56Z" fill="black"></path><path d="M0 73.0002C0 69.1335 0 65.3835 0 61.7502C0 58.1169 0 54.0835 0 49.6502V25.5502C0 20.9835 0 16.8502 0 13.1502C0 9.4502 0 5.63353 0 1.7002C2.86667 1.7002 5.78333 1.7002 8.75 1.7002C11.75 1.7002 14.7833 1.7002 17.85 1.7002C20.95 1.7002 24.0833 1.7002 27.25 1.7002C32.7167 1.7002 37.5667 2.48353 41.8 4.0502C46.0667 5.61687 49.65 7.93354 52.55 11.0002C55.4833 14.0335 57.7 17.7335 59.2 22.1002C60.7333 26.4669 61.5 31.4669 61.5 37.1002C61.5 42.1335 60.8333 46.8335 59.5 51.2002C58.1667 55.5335 56.0333 59.3335 53.1 62.6002C50.1667 65.8669 46.3 68.4169 41.5 70.2502C36.7 72.0835 30.85 73.0002 23.95 73.0002C20.85 73.0002 17.9667 73.0002 15.3 73.0002C12.6333 73.0002 10.05 73.0002 7.55 73.0002C5.08333 73.0002 2.56667 73.0002 0 73.0002ZM14.05 61.7002H23.95C29.6167 61.7002 34.1333 60.6335 37.5 58.5002C40.8667 56.3335 43.2833 53.3835 44.75 49.6502C46.2167 45.8835 46.95 41.6335 46.95 36.9002C46.95 33.3002 46.5167 30.0335 45.65 27.1002C44.7833 24.1669 43.45 21.6502 41.65 19.5502C39.8833 17.4169 37.6 15.8002 34.8 14.7002C32 13.5669 28.6833 13.0002 24.85 13.0002H14.05C14.05 15.4335 14.05 17.8835 14.05 20.3502C14.05 22.8169 14.05 25.6002 14.05 28.7002V46.4002C14.05 49.3669 14.05 52.0669 14.05 54.5002C14.05 56.9335 14.05 59.3335 14.05 61.7002Z" fill="black"></path></svg>