<svg xmlns="http://www.w3.org/2000/svg" width="582" height="312" viewBox="0 0 582 312" fill="none"><path d="M523 310C523 306.134 523 302.384 523 298.75C523 295.117 523 291.084 523 286.65V262.5C523 257.967 523 253.85 523 250.15C523 246.45 523 242.634 523 238.7C525.067 238.7 527.5 238.7 530.3 238.7C533.1 238.7 536.1 238.7 539.3 238.7C542.533 238.7 545.85 238.7 549.25 238.7C554.917 238.7 559.7 239.35 563.6 240.65C567.5 241.917 570.433 244.017 572.4 246.95C574.4 249.884 575.4 253.85 575.4 258.85C575.4 262.884 574.6 266.55 573 269.85C571.433 273.15 568.867 275.784 565.3 277.75C561.767 279.684 557.067 280.667 551.2 280.7L556.35 275.1L566.6 289.35C568.2 291.55 569.883 293.9 571.65 296.4C573.45 298.9 575.2 301.334 576.9 303.7C578.633 306.067 580.15 308.167 581.45 310H565.45C563.483 307.134 561.583 304.384 559.75 301.75C557.95 299.084 556.183 296.5 554.45 294L542.35 276.35L550.75 283.35H534.2V272.5H546.7C549.833 272.5 552.45 272.134 554.55 271.4C556.683 270.634 558.283 269.384 559.35 267.65C560.417 265.884 560.95 263.5 560.95 260.5C560.95 258.167 560.583 256.3 559.85 254.9C559.15 253.5 558.2 252.434 557 251.7C555.8 250.967 554.483 250.484 553.05 250.25C551.65 250.017 550.233 249.9 548.8 249.9H526.85L536.7 240.85C536.7 244.984 536.7 248.9 536.7 252.6C536.7 256.267 536.7 260.3 536.7 264.7V286.65C536.7 291.084 536.7 295.117 536.7 298.75C536.7 302.384 536.7 306.134 536.7 310H523Z" fill="black"></path><path d="M322.383 310C322.383 306.134 322.383 302.384 322.383 298.75C322.383 295.117 322.383 291.084 322.383 286.65V264.7C322.383 260.134 322.383 256 322.383 252.3C322.383 248.6 322.383 244.784 322.383 240.85L327.733 250.95H318.583C314.749 250.95 311.333 250.95 308.333 250.95C305.366 250.95 302.549 250.95 299.883 250.95V238.7H358.783V250.95C356.116 250.95 353.299 250.95 350.333 250.95C347.366 250.95 343.949 250.95 340.083 250.95H330.933L336.333 240.85C336.333 244.784 336.333 248.6 336.333 252.3C336.333 256 336.333 260.134 336.333 264.7V286.65C336.333 291.084 336.333 295.117 336.333 298.75C336.333 302.384 336.333 306.134 336.333 310H322.383Z" fill="black"></path><path d="M270.223 311.25C264.49 311.25 259.323 310.366 254.723 308.6C250.123 306.8 246.207 304.266 242.973 301C239.74 297.7 237.257 293.8 235.523 289.3C233.823 284.766 232.973 279.783 232.973 274.35C232.973 267.183 234.423 260.816 237.323 255.25C240.257 249.65 244.407 245.266 249.773 242.1C255.14 238.9 261.523 237.3 268.923 237.3C271.223 237.3 273.49 237.45 275.723 237.75C277.99 238.05 280.14 238.466 282.173 239C284.24 239.533 286.14 240.133 287.873 240.8C289.64 241.433 291.19 242.116 292.523 242.85L291.423 255.95C288.857 254.35 286.357 253.066 283.923 252.1C281.49 251.1 279.14 250.383 276.873 249.95C274.64 249.516 272.473 249.3 270.373 249.3C265.973 249.3 262.04 250.283 258.573 252.25C255.14 254.216 252.44 257.066 250.473 260.8C248.507 264.533 247.523 269.05 247.523 274.35C247.523 277.783 248.023 281.033 249.023 284.1C250.057 287.133 251.59 289.816 253.623 292.15C255.657 294.483 258.19 296.316 261.223 297.65C264.29 298.95 267.857 299.6 271.923 299.6C273.523 299.6 275.14 299.5 276.773 299.3C278.407 299.066 280.04 298.716 281.673 298.25C283.307 297.783 284.923 297.15 286.523 296.35C288.123 295.55 289.707 294.583 291.273 293.45L292.123 306.4C290.723 307.233 289.157 307.966 287.423 308.6C285.69 309.2 283.873 309.7 281.973 310.1C280.107 310.5 278.173 310.783 276.173 310.95C274.173 311.15 272.19 311.25 270.223 311.25Z" fill="black"></path><path fill-rule="evenodd" clip-rule="evenodd" d="M106 303.933C122.531 303.933 135.933 290.531 135.933 274C135.933 257.469 122.531 244.067 106 244.067C89.4687 244.067 76.0674 257.469 76.0674 274C76.0674 290.531 89.4687 303.933 106 303.933ZM106 311C126.435 311 143 294.435 143 274C143 253.565 126.435 237 106 237C85.5655 237 69 253.565 69 274C69 294.435 85.5655 311 106 311Z" fill="black"></path><path fill-rule="evenodd" clip-rule="evenodd" d="M396 303.933C412.531 303.933 425.933 290.531 425.933 274C425.933 257.469 412.531 244.067 396 244.067C379.469 244.067 366.067 257.469 366.067 274C366.067 290.531 379.469 303.933 396 303.933ZM396 311C416.435 311 433 294.435 433 274C433 253.565 416.435 237 396 237C375.565 237 359 253.565 359 274C359 294.435 375.565 311 396 311Z" fill="black"></path><path fill-rule="evenodd" clip-rule="evenodd" d="M478 303.933C494.531 303.933 507.933 290.531 507.933 274C507.933 257.469 494.531 244.067 478 244.067C461.469 244.067 448.067 257.469 448.067 274C448.067 290.531 461.469 303.933 478 303.933ZM478 311C498.435 311 515 294.435 515 274C515 253.565 498.435 237 478 237C457.565 237 441 253.565 441 274C441 294.435 457.565 311 478 311Z" fill="black"></path><path fill-rule="evenodd" clip-rule="evenodd" d="M188 303.933C204.531 303.933 217.933 290.531 217.933 274C217.933 257.469 204.531 244.067 188 244.067C171.469 244.067 158.067 257.469 158.067 274C158.067 290.531 171.469 303.933 188 303.933ZM188 311C208.435 311 225 294.435 225 274C225 253.565 208.435 237 188 237C167.565 237 151 253.565 151 274C151 294.435 167.565 311 188 311Z" fill="black"></path><path fill-rule="evenodd" clip-rule="evenodd" d="M106 289.371C114.489 289.371 121.371 282.489 121.371 274C121.371 265.511 114.489 258.629 106 258.629C97.5109 258.629 90.6292 265.511 90.6292 274C90.6292 282.489 97.5109 289.371 106 289.371ZM106 293C116.493 293 125 284.493 125 274C125 263.507 116.493 255 106 255C95.5066 255 87 263.507 87 274C87 284.493 95.5066 293 106 293Z" fill="black"></path><path fill-rule="evenodd" clip-rule="evenodd" d="M396 289.371C404.489 289.371 411.371 282.489 411.371 274C411.371 265.511 404.489 258.629 396 258.629C387.511 258.629 380.629 265.511 380.629 274C380.629 282.489 387.511 289.371 396 289.371ZM396 293C406.493 293 415 284.493 415 274C415 263.507 406.493 255 396 255C385.507 255 377 263.507 377 274C377 284.493 385.507 293 396 293Z" fill="black"></path><path fill-rule="evenodd" clip-rule="evenodd" d="M478 289.371C486.489 289.371 493.371 282.489 493.371 274C493.371 265.511 486.489 258.629 478 258.629C469.511 258.629 462.629 265.511 462.629 274C462.629 282.489 469.511 289.371 478 289.371ZM478 293C488.493 293 497 284.493 497 274C497 263.507 488.493 255 478 255C467.507 255 459 263.507 459 274C459 284.493 467.507 293 478 293Z" fill="black"></path><path fill-rule="evenodd" clip-rule="evenodd" d="M188 289.371C196.489 289.371 203.371 282.489 203.371 274C203.371 265.511 196.489 258.629 188 258.629C179.511 258.629 172.629 265.511 172.629 274C172.629 282.489 179.511 289.371 188 289.371ZM188 293C198.493 293 207 284.493 207 274C207 263.507 198.493 255 188 255C177.507 255 169 263.507 169 274C169 284.493 177.507 293 188 293Z" fill="black"></path><path d="M0 310C0 306.134 0 302.384 0 298.75C0 295.117 0 291.084 0 286.65V262.55C0 257.984 0 253.85 0 250.15C0 246.45 0 242.634 0 238.7C2.86667 238.7 5.78333 238.7 8.75 238.7C11.75 238.7 14.7833 238.7 17.85 238.7C20.95 238.7 24.0833 238.7 27.25 238.7C32.7167 238.7 37.5667 239.484 41.8 241.05C46.0667 242.617 49.65 244.934 52.55 248C55.4833 251.034 57.7 254.734 59.2 259.1C60.7333 263.467 61.5 268.467 61.5 274.1C61.5 279.134 60.8333 283.834 59.5 288.2C58.1667 292.534 56.0333 296.334 53.1 299.6C50.1667 302.867 46.3 305.417 41.5 307.25C36.7 309.084 30.85 310 23.95 310C20.85 310 17.9667 310 15.3 310C12.6333 310 10.05 310 7.55 310C5.08333 310 2.56667 310 0 310ZM14.05 298.7H23.95C29.6167 298.7 34.1333 297.634 37.5 295.5C40.8667 293.334 43.2833 290.384 44.75 286.65C46.2167 282.884 46.95 278.634 46.95 273.9C46.95 270.3 46.5167 267.034 45.65 264.1C44.7833 261.167 43.45 258.65 41.65 256.55C39.8833 254.417 37.6 252.8 34.8 251.7C32 250.567 28.6833 250 24.85 250H14.05C14.05 252.434 14.05 254.884 14.05 257.35C14.05 259.817 14.05 262.6 14.05 265.7V283.4C14.05 286.367 14.05 289.067 14.05 291.5C14.05 293.934 14.05 296.334 14.05 298.7Z" fill="black"></path><path fill-rule="evenodd" clip-rule="evenodd" d="M192.25 161C232.014 161 264.25 128.764 264.25 89C264.25 49.2355 232.014 17 192.25 17C152.485 17 120.25 49.2355 120.25 89C120.25 128.764 152.485 161 192.25 161ZM192.25 178C241.403 178 281.25 138.153 281.25 89C281.25 39.8467 241.403 0 192.25 0C143.097 0 103.25 39.8467 103.25 89C103.25 138.153 143.097 178 192.25 178Z" fill="black"></path><path fill-rule="evenodd" clip-rule="evenodd" d="M192 127.022C212.999 127.022 230.022 109.999 230.022 89C230.022 68.0008 212.999 50.9775 192 50.9775C171.001 50.9775 153.978 68.0008 153.978 89C153.978 109.999 171.001 127.022 192 127.022ZM192 136C217.957 136 239 114.957 239 89C239 63.0426 217.957 42 192 42C166.043 42 145 63.0426 145 89C145 114.957 166.043 136 192 136Z" fill="black"></path><path fill-rule="evenodd" clip-rule="evenodd" d="M384 127.022C404.999 127.022 422.022 109.999 422.022 89C422.022 68.0008 404.999 50.9775 384 50.9775C363.001 50.9775 345.978 68.0008 345.978 89C345.978 109.999 363.001 127.022 384 127.022ZM384 136C409.957 136 431 114.957 431 89C431 63.0426 409.957 42 384 42C358.043 42 337 63.0426 337 89C337 114.957 358.043 136 384 136Z" fill="black"></path><path fill-rule="evenodd" clip-rule="evenodd" d="M384.25 161C424.014 161 456.25 128.764 456.25 89C456.25 49.2355 424.014 17 384.25 17C344.485 17 312.25 49.2355 312.25 89C312.25 128.764 344.485 161 384.25 161ZM384.25 178C433.403 178 473.25 138.153 473.25 89C473.25 39.8467 433.403 0 384.25 0C335.097 0 295.25 39.8467 295.25 89C295.25 138.153 335.097 178 384.25 178Z" fill="black"></path></svg>